<svg id="SvgjsSvg1014" width="256" height="256" xmlns="http://www.w3.org/2000/svg" version="1.1" xmlns:xlink="http://www.w3.org/1999/xlink" xmlns:svgjs="http://svgjs.com/svgjs"><defs id="SvgjsDefs1015"></defs><g id="SvgjsG1016"><svg xmlns="http://www.w3.org/2000/svg" viewBox="0 0 16 16" width="256" height="256"><g fill="#b08cba" class="colorB08CBA svgShape"><path d="M2.955 5.492v3.27c0 .625-.289.949-.8.949-.375 0-.637-.176-.809-.477-.113-.183-.21-.261-.375-.261-.223 0-.371.156-.371.406 0 .223.11.457.285.644.29.301.73.461 1.281.461 1.047 0 1.676-.648 1.676-1.742v-3.25c0-.312-.168-.492-.449-.492-.277 0-.438.18-.438.492Z" fill="#000000" class="color000 svgShape"></path><path d="M6.018 10.486a1.314 1.314 0 0 0 1.32-1.313V6.959a.462.462 0 0 1 .923 0v2.203a1.324 1.324 0 0 0 1.331 1.324c.736-.003 1.33-.6 1.33-1.337V5.54a.445.445 0 0 0-.89 0v3.61a.447.447 0 0 1-.44.447.434.434 0 0 1-.44-.434V6.853a1.353 1.353 0 1 0-2.706 0v2.323a.42.42 0 0 1-.427.42.433.433 0 0 1-.427-.433V5.54a.447.447 0 1 0-.893 0v3.62c0 .73.59 1.323 1.32 1.326Z" opacity=".811" fill="#000000" class="color000 svgShape"></path><path d="M13.759 10.481c.273 0 .445-.184.445-.476V5.872h1.215c.242 0 .402-.153.402-.38 0-.226-.16-.382-.402-.382h-3.313c-.238 0-.406.156-.406.383 0 .222.168.379.406.379h1.211v4.133c0 .296.168.476.442.476Z" fill="#000000" class="color000 svgShape"></path></g></svg></g></svg>